# xmcd
#
# Track frame offsets:
#	150
#	38039
#	54329
#	72989
#	85471
#	97053
#	111368
#	123783
#	140268
#	153918
#	180150
#	200646
#	220430
#	239208
#	248359
#
# Disc length: 3514 seconds
#
# Revision: 4
# Processed by: cddbd v1.5.2PL0 Copyright (c) Steve Scherf et al.
# Submitted via: audiograbber 1.83.01
#
DISCID=d20db80f
DTITLE=Various Artist - DDP-05-FL
DYEAR=2000
DGENRE=Karaoke
TTITLE0=Don McLean - American Pie
TTITLE1=Percy Sledge - When A Man Loves A Woman
TTITLE2=Pointer Sisters - I'm So Excited
TTITLE3=Conway Twitty - Hello Darlin'
TTITLE4=Connie Smith - Once A Day
TTITLE5=Andy Williams - Moon River
TTITLE6=Chubby Checker - The Twist
TTITLE7=Brooks and Dunn - Rock My World (Little Country Girl)
TTITLE8=LeAnn Rimes - Blue
TTITLE9=Boys II Men - End of the Road
TTITLE10=Sarah McLachlan - Angel
TTITLE11=Lynyrd Skynyrd - Sweet Home Alabama
TTITLE12=Janis Joplin - Me and Bobby McGee
TTITLE13=Southern Gospel - I'll Fly Away
TTITLE14=B.J. Thomas - Jingle Bells
EXTD=
EXTT0=
EXTT1=
EXTT2=
EXTT3=
EXTT4=
EXTT5=
EXTT6=
EXTT7=
EXTT8=
EXTT9=
EXTT10=
EXTT11=
EXTT12=
EXTT13=
EXTT14=
PLAYORDER=
